<?xml version="1.0" encoding="UTF-8"?><svg xmlns="http://www.w3.org/2000/svg" width="325.07mm" height="103.67mm" viewBox="0 0 921.47 293.85"><g id="Capa_3"><rect x="2.21" width="919.26" height="212.6" style="fill:#f8f9fa; stroke-width:0px;"/></g><g id="Capa_1"><path d="M148.82,84.44h-13.43c-1.26,0-2.32,1.06-2.32,2.32v52.13c0,10.5-4.49,15.39-14.07,15.39s-14.07-4.89-14.07-15.39v-52.13c0-1.26-1.06-2.32-2.32-2.32h-13.43c-1.11,0-2.21,1.15-2.21,2.32v55.4c0,8.56,2.85,15.63,8.24,20.44,5.57,4.97,13.6,7.49,23.79,7.49s18.21-2.52,23.79-7.49c5.39-4.81,8.24-11.88,8.24-20.44v-55.4c0-1.17-1.09-2.32-2.21-2.32" style="fill:#4a7729; stroke-width:0px;"/><path d="M324.7,84.44h-17.24c-.71,0-1.67.42-2.15,1.02h0l-21.07,25.12c-.16.16-.39.26-.64.26h-.16c-.25,0-.47-.1-.64-.26l-21.07-25.12h0c-.48-.59-1.44-1.02-2.15-1.02h-17.24c-1.11,0-2.21,1.15-2.21,2.32v78.54c0,1.17,1.09,2.32,2.21,2.32h13.43c1.26,0,2.32-1.06,2.32-2.32v-55.78l23.99,27.98c.05.06.11.13.18.18h0s0,0,0,0c.33.29.77.47,1.26.47s.93-.18,1.26-.47h0s.01,0,.01,0c.06-.06.12-.12.17-.18l23.99-27.98v55.78c0,1.26,1.06,2.32,2.32,2.32h13.43c1.11,0,2.21-1.15,2.21-2.32v-78.54c0-1.17-1.09-2.32-2.21-2.32" style="fill:#4a7729; stroke-width:0px;"/><path d="M233.14,167.79h-39.86v-3.14h17.45l-3.09-9.61-5.28-16.01h-25.33l-5.64,16.02-3.05,9.59h11.4v3.14h-26.28v-3.14h10.34l3.79-10.07,24.93-70.6h1.03l.1.29,24.47,70.09,3.81,10.29h11.2v3.14ZM178.12,135.43h23.13l-11.44-34.26-11.69,34.26Z" style="fill:#4a7729; stroke-width:0px;"/><polygon points="212.37 42.51 205.2 84.25 240.14 69.51 240.14 42.51 212.37 42.51" style="fill:#0077c8; stroke-width:0px;"/><path d="M376.6,83.81v1.06h-4.39l-.04,3.77v16.94c.04,4.39.13,8.56,8.38,8.56s8.87-3.64,9-7.58v-17.91l-.04-3.77h-4.48v-1.06h9.8v1.06h-3.86l-.04,3.77v16.14c-.04,5.81-.09,10.77-11.57,10.77-1.64,0-5.54-.18-8.02-1.2-3.95-1.68-4.04-5.14-4.08-9.4v-16.32l-.04-3.77h-3.81v-1.06h13.21Z" style="fill:#0077c8; stroke-width:0px;"/><path d="M419.07,114.05h3.46v1.06h-11.44v-1.06h3.5l.04-3.5v-8.07c-.04-4.52-.04-5.85-1.15-6.92-.71-.67-1.64-.71-2.04-.71-1.6,0-2.79.8-3.64,1.6-2.35,2.35-2.44,5.5-2.53,8.29v5.81l.04,3.5h3.64v1.06h-11.88v-1.06h3.9l.04-3.5v-11.93l-.04-3.86h-3.9v-1.06h4.21c1.95,0,2.62-.04,4.21-.18l-.04,4.17c1.15-1.73,2.84-4.35,7.63-4.35,5.99,0,5.99,4.61,5.99,7.05,0,1.06,0,2.17-.04,3.24v6.92l.04,3.5Z" style="fill:#0077c8; stroke-width:0px;"/><path d="M428.74,93.7c1.77-.04,2.39-.04,4.12-.18l-.04,4.65v12.1l.04,3.77h3.55v1.06h-11.79v-1.06h3.81l.04-3.77v-12.1l-.04-3.41h-3.81v-1.06h4.12ZM427.89,86.69c0-1.42,1.15-2.62,2.62-2.62,1.37,0,2.57,1.2,2.57,2.62s-1.2,2.57-2.57,2.57c-.71,0-1.37-.27-1.86-.75-.49-.49-.75-1.15-.75-1.82" style="fill:#0077c8; stroke-width:0px;"/><polygon points="461.19 93.7 461.19 94.76 457.96 94.76 456.23 98.79 449.75 115.51 448.6 115.51 441.99 98.79 440.35 94.76 437.16 94.76 437.16 93.7 449.49 93.7 449.49 94.76 445.5 94.76 446.56 97.82 450.91 109.3 455.34 97.78 456.45 94.76 452.32 94.76 452.32 93.7 461.19 93.7" style="fill:#0077c8; stroke-width:0px;"/><path d="M481.91,108.95c-1.29,3.06-3.15,6.61-9.4,6.61-1.91,0-4.7-.22-7.23-2.75-2.53-2.57-2.97-5.85-2.97-8.47,0-1.15.09-2.17.31-3.1.44-2.04,1.55-4.12,3.02-5.45,1.64-1.6,4.17-2.66,6.87-2.66,2.88,0,5.19,1.15,6.74,2.71,2.4,2.44,2.62,5.19,2.75,7.18h-14.76c0,2.48,0,5.19.93,7.45,1.33,3.41,4.26,3.77,5.59,3.77,1.15,0,2.17-.31,2.97-.67,2.57-1.33,3.55-3.77,4.03-5.01l1.15.4ZM476.72,101.77c-.04-1.68-.09-3.41-.75-4.92-.93-2.04-2.57-2.48-3.86-2.48-4.26,0-4.61,4.74-4.83,7.4h9.44Z" style="fill:#0077c8; stroke-width:0px;"/><path d="M491.97,114.05h3.77v1.06h-11.84v-1.06h3.72l.04-3.77v-11.84l-.04-3.72h-3.72v-1.02h4.08c1.73-.04,2.35-.04,4.08-.22l-.05,5.14c1.11-2.35,2.57-5.37,6.12-5.37,2.93,0,3.99,2.26,3.99,4.17,0,1.64-.66,2.97-2.26,2.97-.67,0-2.22-.49-2.22-2.31,0-.31.22-1.69.22-2,0-1.29-.89-1.33-1.15-1.33-.31,0-.8.13-1.55.84-3.01,2.97-3.15,7.58-3.24,11.35v3.32l.05,3.77Z" style="fill:#0077c8; stroke-width:0px;"/><path d="M505.89,107.09c.13,1.95.31,4.03,2.08,5.72,1.37,1.29,2.79,1.51,4.04,1.51,3.19,0,4.97-1.6,4.97-3.81,0-2.53-2.22-3.37-5.19-4.39-2.62-.89-6.56-2.26-6.56-6.61,0-3.86,2.88-6.34,7.14-6.34,2.31,0,4.34.71,6.21,1.29l.09,5.68h-1.29c-.31-1.77-1.02-5.72-5.19-5.72-2.48,0-3.9,1.51-3.9,3.15,0,.8.31,1.51.8,2,.62.62.98.75,4.43,1.99,3.46,1.29,6.83,2.66,6.83,7.09,0,4.03-3.28,6.92-8.34,6.92-2.75,0-5.05-.71-7.36-1.42v-7.05h1.24Z" style="fill:#0077c8; stroke-width:0px;"/><path d="M527.4,93.7c1.77-.04,2.4-.04,4.12-.18l-.04,4.65v12.1l.04,3.77h3.55v1.06h-11.79v-1.06h3.81l.04-3.77v-12.1l-.04-3.41h-3.81v-1.06h4.12ZM526.55,86.69c0-1.42,1.15-2.62,2.62-2.62,1.37,0,2.57,1.2,2.57,2.62s-1.2,2.57-2.57,2.57c-.71,0-1.37-.27-1.86-.75-.49-.49-.75-1.15-.75-1.82" style="fill:#0077c8; stroke-width:0px;"/><path d="M553.2,83.81c1.86,0,2.48-.04,3.99-.18l-.04,4.7v21.86l.04,3.86h3.55v1.06h-7.98v-3.41c-.58,1.11-2,3.77-6.12,3.77-4.66,0-8.47-3.95-8.47-11.04,0-6.07,3.01-11.17,8.73-11.17,3.95,0,5.01,2.13,5.85,3.77v-8.69l-.04-3.46h-4.35v-1.06h4.83ZM543.05,103.67c0,4.08,0,10.2,4.88,10.2s4.83-6.61,4.83-9.22c0-1.77-.04-5.23-.98-7.27-.8-1.64-2.22-2.66-4.03-2.66-4.7.04-4.7,6.38-4.7,8.96" style="fill:#0077c8; stroke-width:0px;"/><path d="M584.42,114.05v1.06h-3.24c-.58,0-1.06,0-1.6-.09-2.62-.31-3.06-1.95-3.33-2.97-.84,1.2-2.44,3.5-7.01,3.5-.75,0-2.79-.04-4.17-1.42-.67-.67-1.64-2.17-1.64-5.01,0-1.69.35-3.1,1.46-4.26,1.24-1.24,2.48-1.51,6.34-2.31,2.57-.53,3.77-.98,5.28-1.51v-1.6c-.04-3.01-.09-5.23-3.59-5.23s-3.5,2.17-3.55,3.55c-.05.93-.09,2.26-2.13,2.26-.93,0-2.17,0-2.17-1.86,0-.58.13-1.11.36-1.64,1.06-2.62,4.34-3.33,7.63-3.33,1.77,0,3.68.27,5.05.93,2.75,1.38,2.75,3.86,2.75,5.9v9.71c-.04,3.33.36,4.3,2.44,4.3h1.11ZM576.52,102.21l-3.99,1.2c-2.31.71-4.26,1.55-4.26,5.94,0,1.29,0,4.7,3.02,4.7,1.55,0,2.53-.8,3.15-1.42,1.91-1.91,1.99-4.3,2.09-6.61v-3.81Z" style="fill:#0077c8; stroke-width:0px;"/><path d="M602.64,83.81c1.86,0,2.48-.04,3.99-.18l-.04,4.7v21.86l.04,3.86h3.55v1.06h-7.98v-3.41c-.58,1.11-2,3.77-6.12,3.77-4.66,0-8.47-3.95-8.47-11.04,0-6.07,3.01-11.17,8.73-11.17,3.95,0,5.01,2.13,5.85,3.77v-8.69l-.04-3.46h-4.35v-1.06h4.83ZM592.48,103.67c0,4.08,0,10.2,4.88,10.2s4.83-6.61,4.83-9.22c0-1.77-.04-5.23-.97-7.27-.8-1.64-2.22-2.66-4.03-2.66-4.7.04-4.7,6.38-4.7,8.96" style="fill:#0077c8; stroke-width:0px;"/><path d="M637.84,83.45h.89l8.78,26.65,1.37,3.95h3.99v1.06h-14.14v-1.06h4.57l-1.02-3.72-1.91-6.12h-8.07l-2.04,6.12-1.11,3.72h4.61v1.06h-9.89v-1.06h3.68l1.37-3.86,8.91-26.74ZM636.51,91.75l-3.77,11.22h7.27l-3.5-11.22Z" style="fill:#0077c8; stroke-width:0px;"/><path d="M670.75,93.7c2.08,0,2.57-.04,4.21-.18l-.04,4.61v12.28l.04,3.64h3.68v1.06h-3.72c-1.91.04-2.66.09-4.26.18l-.22-3.95c-.8,1.2-2.79,4.21-7.58,4.21-2.13,0-3.99-.66-4.96-1.73-1.42-1.42-1.42-3.59-1.42-4.61l.04-5.37-.13-9.09h-3.32v-1.06h3.46c2.04-.04,2.75-.04,4.35-.18l-.05,4.61v7.49c.05,4.26.09,6.38,1.29,7.58.49.49,1.37.89,2.48.89,1.24,0,2.66-.53,3.77-1.64,2.08-2.04,2.13-4.48,2.17-6.56v-7.76l-.05-3.37h-3.99v-1.06h4.26Z" style="fill:#0077c8; stroke-width:0px;"/><path d="M688.09,87.84l-.09,5.85h4.74v1.24h-4.7l-.09,14.77c.04,1.51.04,4.12,2.44,4.12,1.55,0,2.48-1.11,3.15-2.62l.93.44c-.98,2.04-2.04,3.68-5.72,3.68-5.1,0-5.1-3.19-5.1-5.32l.13-15.08h-3.46v-1.24h3.42l.09-5.85h4.26Z" style="fill:#0077c8; stroke-width:0px;"/><path d="M715.8,104.34c0,6.65-4.39,11.17-10.2,11.17s-10.15-4.39-10.15-11.04c0-7.58,5.05-11.35,10.33-11.39,5.76-.04,10.02,4.57,10.02,11.26M700.46,104.6c0,6.12.8,9.76,5.14,9.76,5.05,0,5.23-4.35,5.23-9.98,0-2.66-.18-4.34-.22-4.92-.22-1.64-.62-5.32-4.97-5.23-4.61.09-5.19,4.39-5.19,10.37M704.8,91.83h-1.28l2.26-6.43c.44-1.2.8-1.55,1.95-1.6h2c.58,0,1.37.09,1.37,1.02,0,.58-.49,1.11-1.02,1.64l-5.28,5.36Z" style="fill:#0077c8; stroke-width:0px;"/><path d="M740.94,114.05h3.46v1.06h-11.44v-1.06h3.5l.04-3.5v-8.07c-.04-4.52-.04-5.85-1.15-6.92-.71-.67-1.64-.71-2.04-.71-1.6,0-2.79.8-3.64,1.6-2.35,2.35-2.44,5.5-2.53,8.29v5.81l.04,3.5h3.64v1.06h-11.88v-1.06h3.9l.04-3.5v-11.93l-.04-3.86h-3.9v-1.06h4.21c1.95,0,2.62-.04,4.21-.18l-.05,4.17c1.15-1.73,2.84-4.35,7.63-4.35,5.99,0,5.99,4.61,5.99,7.05,0,1.06,0,2.17-.04,3.24v6.92l.04,3.5Z" style="fill:#0077c8; stroke-width:0px;"/><path d="M767.99,104.34c0,6.65-4.39,11.17-10.2,11.17s-10.15-4.39-10.15-11.04c0-7.58,5.05-11.35,10.33-11.39,5.76-.05,10.02,4.57,10.02,11.26M752.64,104.6c0,6.12.8,9.75,5.14,9.75,5.05,0,5.23-4.35,5.23-9.98,0-2.66-.18-4.35-.22-4.92-.22-1.64-.62-5.32-4.97-5.23-4.61.09-5.19,4.39-5.19,10.38" style="fill:#0077c8; stroke-width:0px;"/><path d="M779.47,97.29c.62-.98,1.15-1.82,2.3-2.66,1.24-.84,3.11-1.51,5.23-1.51.89,0,2.08.13,3.15.62,2.31,1.06,2.75,2.88,3.06,4.26.89-1.64,2.66-4.79,7.63-4.79,1.2,0,3.02.13,4.43,1.42,1.73,1.6,1.73,3.72,1.73,5.45l-.13,10.2.05,3.77h3.63v1.06h-11.57v-1.06h3.5l.05-3.77c.04-2.84.09-5.67.09-8.56,0-3.64,0-6.78-3.28-6.78-1.73,0-2.93.75-3.77,1.55-2.22,2.17-2.3,5.59-2.39,8.51v5.28l.04,3.77h3.55v1.06h-11.48v-1.06h3.5l.04-3.77v-8.56c0-2.53-.04-3.55-.27-4.48-.18-.53-.66-2.44-3.19-2.44-1.6,0-2.97.62-3.86,1.51-1.95,2-2.04,5.32-2.13,8.56v5.41l.04,3.77h3.41v1.06h-11.7v-1.06h3.81l.04-3.77v-11.31l-.04-4.21h-3.81v-1.06h4.3c2,0,2.44-.04,4.12-.18l-.09,3.77Z" style="fill:#0077c8; stroke-width:0px;"/><path d="M834.4,114.05v1.06h-3.24c-.58,0-1.06,0-1.6-.09-2.62-.31-3.06-1.95-3.32-2.97-.84,1.2-2.44,3.5-7.01,3.5-.75,0-2.79-.04-4.17-1.42-.66-.67-1.64-2.17-1.64-5.01,0-1.69.35-3.1,1.46-4.26,1.24-1.24,2.48-1.51,6.34-2.31,2.57-.53,3.77-.98,5.28-1.51v-1.6c-.04-3.01-.09-5.23-3.59-5.23s-3.5,2.17-3.55,3.55c-.05.93-.09,2.26-2.13,2.26-.93,0-2.17,0-2.17-1.86,0-.58.13-1.11.36-1.64,1.06-2.62,4.34-3.33,7.63-3.33,1.77,0,3.68.27,5.05.93,2.75,1.38,2.75,3.86,2.75,5.9v9.71c-.04,3.33.36,4.3,2.44,4.3h1.11ZM826.51,102.21l-3.99,1.2c-2.31.71-4.26,1.55-4.26,5.94,0,1.29,0,4.7,3.02,4.7,1.55,0,2.53-.8,3.15-1.42,1.91-1.91,2-4.3,2.08-6.61v-3.81Z" style="fill:#0077c8; stroke-width:0px;"/><path d="M379.43,135.54c1.86,0,2.48-.04,3.99-.18l-.04,4.7v21.86l.04,3.86h3.55v1.06h-7.98v-3.41c-.58,1.11-1.99,3.77-6.12,3.77-4.66,0-8.47-3.95-8.47-11.04,0-6.07,3.01-11.17,8.73-11.17,3.95,0,5.01,2.13,5.85,3.77v-8.69l-.04-3.46h-4.35v-1.06h4.83ZM369.28,155.4c0,4.08,0,10.2,4.88,10.2s4.83-6.61,4.83-9.22c0-1.77-.04-5.23-.97-7.27-.8-1.64-2.22-2.66-4.03-2.66-4.7.04-4.7,6.38-4.7,8.96" style="fill:#0077c8; stroke-width:0px;"/><path d="M409.54,160.68c-1.29,3.06-3.15,6.61-9.4,6.61-1.91,0-4.7-.22-7.23-2.75-2.53-2.57-2.97-5.85-2.97-8.47,0-1.15.09-2.17.31-3.1.44-2.04,1.55-4.12,3.01-5.45,1.64-1.6,4.17-2.66,6.87-2.66,2.88,0,5.19,1.15,6.74,2.71,2.39,2.44,2.62,5.19,2.75,7.18h-14.76c0,2.48,0,5.19.93,7.45,1.33,3.41,4.26,3.77,5.59,3.77,1.15,0,2.17-.31,2.97-.67,2.57-1.33,3.55-3.77,4.03-5.01l1.15.4ZM404.35,153.49c-.04-1.68-.09-3.41-.75-4.92-.93-2.04-2.57-2.48-3.86-2.48-4.26,0-4.61,4.74-4.83,7.4h9.45Z" style="fill:#0077c8; stroke-width:0px;"/><polygon points="452.81 135.54 462.52 135.54 462.52 136.6 458.44 136.6 458.4 140.06 458.4 161.25 458.44 165.78 462.52 165.78 462.52 166.84 448.64 166.84 448.64 165.78 453.43 165.78 453.48 161.25 453.48 137.53 441.55 167.42 440.84 167.42 429.14 137.53 429.09 140.06 429.09 161.25 429.14 165.78 433.97 165.78 433.97 166.84 423.68 166.84 423.68 165.78 427.76 165.78 427.81 161.25 427.81 140.06 427.76 136.6 423.68 136.6 423.68 135.54 433.66 135.54 443.15 159.79 452.81 135.54" style="fill:#0077c8; stroke-width:0px;"/><path d="M486.69,165.78v1.06h-3.24c-.58,0-1.07,0-1.6-.09-2.62-.31-3.06-1.95-3.33-2.97-.84,1.2-2.44,3.5-7.01,3.5-.75,0-2.79-.04-4.17-1.42-.67-.67-1.64-2.17-1.64-5.01,0-1.69.35-3.1,1.46-4.26,1.24-1.24,2.48-1.51,6.34-2.31,2.57-.53,3.77-.98,5.28-1.51v-1.6c-.04-3.01-.09-5.23-3.59-5.23s-3.5,2.17-3.55,3.55c-.05.93-.09,2.26-2.13,2.26-.93,0-2.17,0-2.17-1.86,0-.58.13-1.11.36-1.64,1.06-2.62,4.34-3.33,7.63-3.33,1.77,0,3.68.27,5.05.93,2.75,1.37,2.75,3.86,2.75,5.9v9.71c-.04,3.33.35,4.3,2.44,4.3h1.11ZM478.79,153.94l-3.99,1.2c-2.31.71-4.26,1.55-4.26,5.94,0,1.29,0,4.7,3.02,4.7,1.55,0,2.53-.8,3.15-1.42,1.91-1.91,2-4.3,2.08-6.61v-3.81Z" style="fill:#0077c8; stroke-width:0px;"/><path d="M504.91,135.54c1.86,0,2.48-.04,3.99-.18l-.04,4.7v21.86l.04,3.86h3.55v1.06h-7.98v-3.41c-.58,1.11-2,3.77-6.12,3.77-4.65,0-8.47-3.95-8.47-11.04,0-6.07,3.01-11.17,8.73-11.17,3.95,0,5.01,2.13,5.85,3.77v-8.69l-.04-3.46h-4.35v-1.06h4.83ZM494.76,155.4c0,4.08,0,10.2,4.88,10.2s4.83-6.61,4.83-9.22c0-1.77-.04-5.23-.98-7.27-.8-1.64-2.22-2.66-4.03-2.66-4.7.04-4.7,6.38-4.7,8.96" style="fill:#0077c8; stroke-width:0px;"/><path d="M522.2,165.78h3.77v1.06h-11.84v-1.06h3.72l.04-3.77v-11.84l-.04-3.72h-3.72v-1.02h4.08c1.73-.04,2.35-.04,4.08-.22l-.05,5.14c1.11-2.35,2.57-5.36,6.12-5.36,2.93,0,3.99,2.26,3.99,4.17,0,1.64-.66,2.97-2.26,2.97-.67,0-2.22-.49-2.22-2.31,0-.31.22-1.69.22-2,0-1.29-.89-1.33-1.15-1.33-.31,0-.8.13-1.55.84-3.01,2.97-3.15,7.58-3.24,11.35v3.33l.04,3.77Z" style="fill:#0077c8; stroke-width:0px;"/><path d="M537.54,145.42c1.77-.04,2.39-.04,4.12-.18l-.04,4.66v12.1l.04,3.77h3.55v1.06h-11.79v-1.06h3.81l.05-3.77v-12.1l-.05-3.41h-3.81v-1.06h4.12ZM536.7,138.42c0-1.42,1.15-2.62,2.62-2.62,1.37,0,2.57,1.2,2.57,2.62s-1.2,2.57-2.57,2.57c-.71,0-1.37-.27-1.86-.75-.49-.49-.75-1.15-.75-1.82" style="fill:#0077c8; stroke-width:0px;"/><path d="M563.35,135.54c1.86,0,2.48-.04,3.99-.18l-.04,4.7v21.86l.04,3.86h3.55v1.06h-7.98v-3.41c-.58,1.11-2,3.77-6.12,3.77-4.65,0-8.47-3.95-8.47-11.04,0-6.07,3.01-11.17,8.73-11.17,3.95,0,5.01,2.13,5.85,3.77v-8.69l-.04-3.46h-4.35v-1.06h4.83ZM553.19,155.4c0,4.08,0,10.2,4.88,10.2s4.83-6.61,4.83-9.22c0-1.77-.04-5.23-.98-7.27-.8-1.64-2.22-2.66-4.03-2.66-4.7.04-4.7,6.38-4.7,8.96" style="fill:#0077c8; stroke-width:0px;"/></g></svg>
